<?xml version="1.0" standalone="no"?>
<!DOCTYPE svg PUBLIC "-//W3C//DTD SVG 20010904//EN"
 "http://www.w3.org/TR/2001/REC-SVG-20010904/DTD/svg10.dtd">
<svg version="1.0" xmlns="http://www.w3.org/2000/svg"
 width="1024.000000pt" height="1024.000000pt" viewBox="0 0 1024.000000 1024.000000"
 preserveAspectRatio="xMidYMid meet">

<g transform="translate(0.000000,1024.000000) scale(0.100000,-0.100000)"
fill="#000000" stroke="none">
<path d="M4913 7702 c-108 -39 -207 -141 -248 -257 -12 -32 -20 -92 -23 -167
l-4 -118 -274 0 c-151 0 -274 -1 -275 -2 -4 -18 -85 -1775 -82 -1780 2 -5 463
-8 1024 -8 l1019 0 0 38 c1 61 -91 1726 -95 1740 -3 9 -66 12 -270 12 l-265 0
0 98 c0 158 -33 255 -121 347 -71 75 -143 108 -249 112 -64 3 -98 -1 -137 -15z
m241 -33 c80 -29 148 -95 193 -186 36 -72 37 -80 41 -199 l4 -124 -362 0 -362
0 4 118 c7 159 28 214 117 303 47 47 82 72 121 87 74 28 171 29 244 1z m776
-576 c0 -21 20 -400 45 -843 25 -443 45 -815 45 -827 l0 -23 -990 0 -990 0 0
48 c0 68 69 1545 76 1620 l6 62 904 0 904 0 0 -37z"/>
<path d="M2276 4868 c-80 -22 -146 -126 -130 -206 8 -42 57 -97 112 -129 106
-59 144 -87 158 -116 35 -66 -18 -147 -97 -147 -42 0 -84 17 -135 56 l-32 23
-6 -37 c-5 -33 -3 -40 24 -63 38 -32 92 -49 157 -49 159 0 247 180 146 300
-14 17 -61 51 -104 76 -96 56 -129 92 -129 143 0 91 111 112 231 44 3 -2 10
13 17 33 l11 36 -42 18 c-55 23 -132 31 -181 18z"/>
<path d="M5614 4871 c-87 -21 -144 -94 -144 -183 0 -67 30 -104 140 -170 115
-69 140 -95 140 -147 0 -106 -116 -133 -230 -55 l-51 35 3 -48 c3 -47 4 -48
57 -75 89 -45 209 -32 263 28 26 29 48 89 48 129 0 79 -45 134 -167 204 -83
48 -113 81 -113 125 0 90 100 118 212 60 25 -13 27 -12 37 18 6 17 11 33 11
35 0 2 -19 12 -42 22 -52 23 -122 32 -164 22z"/>
<path d="M7121 4869 c-85 -17 -156 -79 -205 -179 -28 -59 -31 -73 -30 -160 0
-74 5 -108 23 -152 89 -227 387 -241 507 -24 83 152 58 361 -56 458 -59 51
-156 74 -239 57z m114 -78 c88 -40 128 -117 129 -251 1 -85 -2 -101 -27 -153
-41 -82 -84 -112 -162 -112 -52 0 -67 4 -98 28 -118 90 -131 328 -25 443 58
63 114 77 183 45z"/>
<path d="M2670 4825 l0 -35 105 0 105 0 0 -290 0 -290 45 0 45 0 0 290 0 290
105 0 105 0 0 35 0 35 -255 0 -255 0 0 -35z"/>
<path d="M3300 4854 c0 -3 11 -20 24 -37 12 -18 57 -98 100 -178 l76 -147 0
-141 0 -141 44 0 44 0 -5 138 -6 138 102 183 c55 101 101 185 101 187 0 2 -19
4 -43 4 l-43 0 -69 -135 c-62 -120 -85 -154 -85 -127 0 5 -30 66 -66 135 l-67
127 -53 0 c-30 0 -54 -3 -54 -6z"/>
<path d="M3994 4823 c3 -21 6 -167 6 -325 l0 -288 165 0 c125 0 165 3 165 13
0 6 3 22 6 35 6 22 6 22 -120 22 l-126 0 0 290 0 290 -51 0 -52 0 7 -37z"/>
<path d="M4554 4829 c3 -17 6 -164 6 -325 l0 -294 160 0 159 0 9 33 8 32 -123
3 -123 3 0 114 0 115 95 0 94 0 9 33 8 32 -103 3 -103 3 0 104 0 105 120 0
120 0 0 35 0 35 -171 0 -171 0 6 -31z"/>
<path d="M6094 4808 c3 -29 6 -176 6 -325 l0 -273 48 0 47 0 -3 150 -3 150
175 0 176 0 0 -150 0 -150 48 0 47 0 -3 325 -3 325 -48 0 -49 0 5 -135 6 -135
-177 0 -176 0 0 135 0 135 -51 0 -52 0 7 -52z"/>
<path d="M7714 4829 c3 -17 6 -164 6 -325 l0 -294 48 0 47 0 0 123 0 122 65 6
c80 7 129 29 174 79 32 35 56 92 56 130 0 34 -22 91 -47 121 -47 55 -92 69
-232 69 l-123 0 6 -31z m229 -53 c44 -18 67 -56 67 -108 0 -85 -58 -138 -150
-138 l-50 0 0 130 0 130 50 0 c28 0 65 -6 83 -14z"/>
<path d="M2107 3803 c-15 -2 -25 -9 -22 -14 8 -12 6062 -12 6069 0 3 5 -8 11
-25 15 -34 7 -5977 6 -6022 -1z"/>
<path d="M3280 3350 c-11 -11 -20 -27 -20 -35 0 -15 6 -22 59 -63 16 -12 22
-25 18 -35 -7 -20 -48 -22 -65 -5 -9 9 -12 8 -12 -4 0 -18 20 -28 54 -28 30 0
46 18 46 52 0 22 -8 33 -36 50 -25 15 -34 26 -32 42 2 17 9 21 36 18 36 -2 44
13 10 22 -33 9 -36 8 -58 -14z"/>
<path d="M4074 3355 c-42 -17 -61 -69 -44 -120 13 -39 35 -55 78 -55 44 0 75
40 75 95 0 71 -48 107 -109 80z m52 -13 c34 -22 43 -84 18 -120 -31 -44 -94
-13 -94 46 0 39 29 82 55 82 6 0 15 -4 21 -8z"/>
<path d="M5050 3350 c-29 -29 -25 -44 22 -83 28 -24 39 -39 35 -51 -7 -19 -48
-21 -65 -4 -9 9 -12 8 -12 -4 0 -36 73 -38 95 -4 20 31 8 59 -36 81 -22 12
-29 22 -27 38 2 18 9 22 36 19 36 -2 44 13 10 22 -33 9 -36 8 -58 -14z"/>
<path d="M6830 3357 c-35 -18 -52 -55 -46 -102 13 -112 156 -95 156 18 0 72
-54 113 -110 84z m66 -28 c22 -24 25 -89 5 -113 -17 -20 -55 -21 -75 0 -23 23
-21 89 4 114 25 25 42 25 66 -1z"/>
<path d="M2770 3270 c0 -73 3 -90 15 -90 11 0 15 11 15 40 0 36 3 40 25 40 14
0 25 5 25 10 0 6 -11 10 -25 10 -21 0 -25 5 -25 30 0 27 3 30 30 30 17 0 30 5
30 10 0 6 -20 10 -45 10 l-45 0 0 -90z"/>
<path d="M3012 3276 c-18 -45 -32 -86 -32 -90 0 -15 18 -4 28 19 9 20 19 25
46 25 28 0 35 -4 40 -25 4 -14 13 -25 22 -25 9 0 14 3 12 8 -2 4 -17 44 -33
89 -17 46 -35 83 -41 83 -6 0 -25 -38 -42 -84z m57 4 c9 -28 8 -30 -15 -30
-26 0 -27 3 -18 38 9 30 20 28 33 -8z"/>
<path d="M3520 3270 c0 -73 3 -90 15 -90 11 0 15 11 15 40 l0 40 50 0 50 0 0
-40 c0 -22 5 -40 10 -40 6 0 10 37 10 90 0 72 -3 90 -14 90 -11 0 -13 -9 -9
-35 l6 -35 -52 0 -51 0 0 35 c0 24 -5 35 -15 35 -12 0 -15 -17 -15 -90z"/>
<path d="M3840 3270 c0 -73 3 -90 15 -90 12 0 15 17 15 90 0 73 -3 90 -15 90
-12 0 -15 -17 -15 -90z"/>
<path d="M4340 3270 c0 -65 3 -90 13 -90 9 0 11 18 9 67 l-4 68 66 -70 65 -70
1 93 c0 55 -4 92 -10 92 -6 0 -10 -28 -10 -62 l-1 -63 -57 63 c-31 34 -60 62
-64 62 -5 0 -8 -40 -8 -90z"/>
<path d="M4850 3270 c0 -65 3 -90 13 -90 9 0 11 23 9 90 -2 49 -8 90 -13 90
-5 0 -9 -40 -9 -90z"/>
<path d="M5480 3270 c0 -66 3 -90 13 -90 9 0 11 12 9 40 -4 37 -2 40 21 40 36
0 43 18 10 22 -22 2 -29 9 -31 31 -3 25 -1 27 32 27 20 0 36 5 36 10 0 6 -20
10 -45 10 l-45 0 0 -90z"/>
<path d="M5720 3270 c0 -73 3 -90 15 -90 10 0 15 11 15 35 0 45 18 45 48 0 12
-19 29 -35 38 -35 13 0 11 7 -11 36 -25 33 -26 37 -11 53 22 24 20 68 -3 81
-11 5 -36 10 -55 10 l-36 0 0 -90z m79 56 c17 -20 -3 -56 -29 -56 -16 0 -20 7
-20 35 0 28 4 35 19 35 10 0 24 -6 30 -14z"/>
<path d="M6000 3270 l0 -90 45 0 c25 0 45 5 45 10 0 6 -16 10 -35 10 -32 0
-35 2 -35 30 0 25 4 30 24 30 35 0 42 18 9 22 -22 2 -29 9 -31 31 -3 25 -1 27
32 27 20 0 36 5 36 10 0 6 -20 10 -45 10 l-45 0 0 -90z"/>
<path d="M6250 3270 l0 -90 45 0 c25 0 45 5 45 10 0 6 -16 10 -35 10 -32 0
-35 2 -35 30 0 25 4 30 24 30 35 0 42 18 9 22 -22 2 -29 9 -31 31 -3 25 -1 27
32 27 20 0 36 5 36 10 0 6 -20 10 -45 10 l-45 0 0 -90z"/>
<path d="M6500 3270 l0 -90 36 0 c39 0 72 14 91 39 20 25 15 85 -8 115 -17 22
-28 26 -70 26 l-49 0 0 -90z m108 37 c10 -21 11 -35 2 -61 -11 -35 -26 -46
-61 -46 -17 0 -19 8 -19 71 l0 70 32 -3 c24 -2 36 -10 46 -31z"/>
<path d="M7100 3270 c0 -53 4 -90 10 -90 6 0 10 27 10 62 l0 62 33 -47 c17
-26 35 -47 39 -47 5 0 21 21 38 48 l30 47 0 -62 c0 -49 3 -63 15 -63 12 0 15
17 15 90 0 53 -4 90 -10 90 -5 0 -26 -25 -46 -55 -20 -30 -40 -53 -43 -50 -4
2 -23 26 -41 54 -19 28 -38 51 -42 51 -5 0 -8 -40 -8 -90z"/>
</g>
</svg>
